HIERARCHY
ROOT Hips
{
	OFFSET	0.00	0.00	0.00
	CHANNELS 6 Xposition Yposition Zposition Zrotation Xrotation Yrotation
	JOINT LeftUpLeg
	{
		OFFSET	 0.126116	-0.014019	-0.065224
		CHANNELS 3 Zrotation Xrotation Yrotation
		JOINT LeftLeg
		{
			OFFSET	 0.000000	 0.000000	 0.569914
			CHANNELS 3 Zrotation Xrotation Yrotation
			JOINT LeftFoot
			{
				OFFSET	 0.000000	 0.000000	 0.544423
				CHANNELS 3 Zrotation Xrotation Yrotation
				JOINT LeftToeBase
				{
					OFFSET	 0.000000	 0.000000	 0.207117
					CHANNELS 3 Zrotation Xrotation Yrotation
					End Site
					{
						OFFSET	 0.000000	 0.000000	 0.207117
					}
				}
			}
		}
	}
	JOINT RightUpLeg
	{
		OFFSET	-0.124023	-0.008373	-0.065224
		CHANNELS 3 Zrotation Xrotation Yrotation
		JOINT RightLeg
		{
			OFFSET	 0.000000	 0.000000	 0.570047
			CHANNELS 3 Zrotation Xrotation Yrotation
			JOINT RightFoot
			{
				OFFSET	 0.000000	 0.000000	 0.544354
				CHANNELS 3 Zrotation Xrotation Yrotation
				JOINT RightToeBase
				{
					OFFSET	 0.000000	 0.000000	 0.207540
					CHANNELS 3 Zrotation Xrotation Yrotation
					End Site
					{
						OFFSET	 0.000000	 0.000000	 0.207540
					}
				}
			}
		}
	}
	JOINT Spine
	{
		OFFSET	 0.000184	-0.007763	 0.117403
		CHANNELS 3 Zrotation Xrotation Yrotation
		JOINT Spine1
		{
			OFFSET	 0.000000	 0.000000	 0.137269
			CHANNELS 3 Zrotation Xrotation Yrotation
			JOINT Spine2
			{
				OFFSET	 0.000000	 0.000000	 0.156879
				CHANNELS 3 Zrotation Xrotation Yrotation
				JOINT LeftShoulder
				{
					OFFSET	 0.080501	-0.002496	 0.160144
					CHANNELS 3 Zrotation Xrotation Yrotation
					JOINT LeftArm
					{
						OFFSET	 0.000000	 0.000000	 0.164363
						CHANNELS 3 Zrotation Xrotation Yrotation
						JOINT LeftForeArm
						{
							OFFSET	 0.000000	 0.000000	 0.364576
							CHANNELS 3 Zrotation Xrotation Yrotation
							JOINT LeftHand
							{
								OFFSET	 0.000000	 0.000000	 0.360812
								CHANNELS 3 Zrotation Xrotation Yrotation
								JOINT LeftHandIndex1
								{
									OFFSET	 0.000000	 0.000000	 0.086006
									CHANNELS 3 Zrotation Xrotation Yrotation
									JOINT LeftHandIndex2
									{
										OFFSET	 0.000000	 0.000000	 0.047236
										CHANNELS 3 Zrotation Xrotation Yrotation
										JOINT LeftHandIndex3
										{
											OFFSET	-0.004284	-0.000551	 0.038166
											CHANNELS 3 Zrotation Xrotation Yrotation
											End Site
											{
												OFFSET	-0.004284	-0.000551	 0.038166
											}
										}
									}
								}
							}
						}
					}
				}
				JOINT Neck
				{
					OFFSET	 0.000000	 0.000000	 0.176489
					CHANNELS 3 Zrotation Xrotation Yrotation
					JOINT Head
					{
						OFFSET	 0.000000	-0.001747	 0.077940
						CHANNELS 3 Zrotation Xrotation Yrotation
						End Site
						{
							OFFSET	 0.000000	-0.001747	 0.077940
						}
					}
				}
				JOINT RightShoulder
				{
					OFFSET	-0.080363	 0.000306	 0.159706
					CHANNELS 3 Zrotation Xrotation Yrotation
					JOINT RightArm
					{
						OFFSET	 0.000000	 0.000000	 0.164196
						CHANNELS 3 Zrotation Xrotation Yrotation
						JOINT RightForeArm
						{
							OFFSET	 0.000000	 0.000000	 0.365611
							CHANNELS 3 Zrotation Xrotation Yrotation
							JOINT RightHand
							{
								OFFSET	 0.000000	 0.000000	 0.360648
								CHANNELS 3 Zrotation Xrotation Yrotation
								JOINT RightHandIndex1
								{
									OFFSET	 0.000000	 0.000000	 0.069977
									CHANNELS 3 Zrotation Xrotation Yrotation
									JOINT RightHandIndex2
									{
										OFFSET	 0.000000	 0.000000	 0.052305
										CHANNELS 3 Zrotation Xrotation Yrotation
										JOINT RightHandIndex3
										{
											OFFSET	 0.009002	-0.000782	 0.042196
											CHANNELS 3 Zrotation Xrotation Yrotation
											End Site
											{
												OFFSET	 0.009002	-0.000782	 0.042196
											}
										}
									}
								}
							}
						}
					}
				}
			}
		}
	}
}
MOTION
Frames:    6
Frame Time: 0.03333334
-17.417430	-41.857850	 0.800839	-44.274140	 17.296030	 3.758872	 3.500309	-34.876430	 175.340900	-1.245565	-43.104070	-0.292651	-0.716701	 80.832710	 0.538192	-2.352008	 34.207000	-0.129945	-0.732464	-36.087560	-179.523300	-3.007389	-43.145080	-0.969980	-1.601726	 81.050960	 0.485026	 2.406727	 19.770880	-0.177645	 37.081380	 15.100830	 1.317327	 0.720637	 1.865206	-1.842530	 0.196472	-3.863946	 0.019575	-125.714800	 89.281540	-141.849900	 54.801300	 65.860820	-61.439250	-7.871686	-2.558848	-24.432550	-7.950911	-4.142440	-5.851486	-5.687304	-12.266540	-1.381170	-5.213516	-0.193813	 3.566525	-1.378229	 35.397820	-2.634230	 0.811903	 0.150588	-3.817146	 0.088423	-6.698533	 1.283866	 93.698010	 85.943300	 172.008400	-61.633680	 74.674550	 71.211030	-4.741863	-16.594960	 32.810910	-17.932570	-4.677111	 10.145270	-9.947680	-10.084370	-38.939380	 5.070815	-0.697434	-9.399699	-2.350882	 35.473990	 5.254307
-17.421170	-41.863670	 0.801328	-44.180760	 17.605970	 3.772927	 3.597090	-34.873820	 175.488200	-1.603304	-43.058470	-0.483038	-0.833862	 81.153490	 0.423778	-2.353837	 33.958400	-0.124071	-0.753579	-35.936790	-179.452600	-2.876996	-42.881580	-0.896354	-1.603481	 81.586230	 0.600277	 2.406454	 20.072240	-0.171667	 36.142490	 14.969720	 1.220967	 0.718849	 1.728728	-1.885577	 0.170334	-4.037629	 0.017228	-125.328800	 89.273960	-142.230300	 56.843480	 66.474380	-62.131610	-6.512569	-3.048671	-24.651720	-7.209291	-5.417333	-5.929458	-5.545922	-12.080300	-1.068868	-5.213516	-0.193813	 3.566525	-1.378229	 35.397820	-2.634230	 0.787233	 0.055674	-3.762524	 0.068695	-6.950534	 1.376046	 93.696070	 85.961620	 172.040200	-59.913010	 75.794560	 68.692270	-6.330167	-16.202350	 30.591640	-19.173270	-5.966603	 10.227720	-9.720503	-9.630498	-38.734090	 5.070815	-0.697434	-9.399699	-2.350882	 35.473990	 5.254307
-17.424690	-41.869020	 0.801522	-44.124590	 17.895780	 3.787241	 3.614054	-34.936000	 175.554300	-1.851490	-43.118130	-0.645150	-0.926913	 81.464290	 0.322210	-2.353299	 34.032450	-0.125816	-0.772027	-35.812220	-179.390600	-2.725953	-42.685910	-0.806992	-1.585114	 82.092940	 0.711567	 2.405997	 20.516340	-0.162833	 35.129380	 14.821120	 1.140599	 0.732477	 1.595653	-1.929049	 0.133915	-4.201320	 0.013733	-124.633500	 89.257700	-142.906400	 58.693280	 66.977130	-62.781320	-5.167993	-3.536678	-24.918450	-6.466940	-6.706954	-5.985745	-5.374455	-11.929440	-0.682900	-5.213516	-0.193813	 3.566525	-1.378229	 35.397820	-2.634230	 0.755824	-0.047049	-3.685080	 0.026510	-7.175675	 1.369127	 93.683330	 85.978100	 172.090900	-57.342300	 76.903630	 65.189220	-7.773478	-15.896460	 28.914450	-20.389780	-7.269662	 10.292380	-9.498564	-9.186950	-38.530760	 5.070815	-0.697434	-9.399699	-2.350882	 35.473990	 5.254307
-17.428130	-41.873940	 0.801594	-44.126090	 18.156340	 3.805381	 3.586301	-34.960510	 175.582300	-1.989504	-43.241120	-0.760485	-0.996277	 81.755360	 0.254279	-2.351069	 34.331040	-0.132894	-0.765138	-35.682370	-179.419600	-2.583521	-42.529850	-0.707319	-1.548833	 82.525900	 0.812399	 2.405508	 20.926570	-0.154650	 34.031360	 14.673840	 1.093799	 0.762113	 1.455975	-1.958555	 0.099285	-4.366501	 0.010324	-123.570400	 89.232550	-143.940300	 60.367150	 67.401440	-63.378170	-3.829159	-4.033871	-25.228610	-5.704868	-8.021873	-6.020375	-5.142039	-11.704090	-0.157601	-5.213516	-0.193813	 3.566525	-1.378229	 35.397820	-2.634230	 0.733170	-0.162249	-3.597382	-0.025671	-7.391095	 1.284672	 93.660680	 85.993660	 172.160100	-54.120820	 77.908830	 61.028960	-9.081416	-15.729780	 27.771260	-21.556160	-8.611320	 10.322610	-9.291884	-8.765184	-38.344870	 5.070815	-0.697434	-9.399699	-2.350882	 35.473990	 5.254307
-17.432260	-41.879910	 0.801628	-44.215590	 18.430640	 3.835284	 3.557745	-34.977590	 175.623100	-2.062910	-43.439970	-0.836058	-1.047208	 82.086840	 0.214709	-2.346778	 34.890540	-0.146250	-0.747697	-35.478490	-179.459400	-2.410481	-42.359470	-0.581268	-1.488516	 82.937480	 0.917939	 2.405013	 21.295860	-0.147264	 32.469060	 14.519510	 1.056934	 0.834608	 1.263051	-1.954612	 0.083280	-4.591956	 0.008824	-121.613600	 89.182430	-145.849000	 62.266120	 67.887120	-64.030860	-2.151782	-4.690600	-25.695280	-4.711235	-9.776682	-6.031716	-4.747399	-11.329440	 0.744034	-5.213516	-0.193813	 3.566525	-1.378229	 35.397820	-2.634230	 0.741707	-0.335454	-3.493469	-0.075522	-7.667695	 1.201507	 93.670260	 86.041210	 172.211300	-49.174400	 79.004650	 54.929110	-10.594330	-15.701130	 26.915210	-22.945550	-10.402690	 10.331940	-9.061912	-8.270028	-38.153270	 5.070815	-0.697434	-9.399699	-2.350882	 35.473990	 5.254307
-17.434840	-41.883620	 0.801684	-44.321030	 18.587380	 3.862611	 3.546238	-34.974920	 175.627900	-2.081450	-43.565720	-0.860954	-1.068737	 82.266710	 0.206213	-2.343632	 35.285380	-0.155760	-0.738625	-35.345270	-179.486500	-2.324619	-42.279670	-0.518418	-1.456933	 83.126880	 0.968548	 2.404835	 21.415720	-0.144856	 31.333560	 14.431240	 1.028879	 0.895549	 1.139413	-1.922554	 0.087295	-4.735950	 0.009356	-119.969700	 89.136790	-147.459700	 63.319840	 68.210270	-64.343400	-1.136012	-5.129186	-26.045890	-4.073096	-10.974750	-6.017059	-4.477140	-11.072050	 1.368253	-5.213516	-0.193813	 3.566525	-1.378229	 35.397820	-2.634230	 0.765579	-0.440308	-3.431482	-0.097726	-7.849645	 1.196983	 93.724960	 86.103290	 172.194300	-45.658940	 79.579310	 50.728930	-11.498530	-15.738360	 26.598140	-23.756880	-11.625850	 10.319210	-8.943069	-7.987744	-38.071720	 5.070815	-0.697434	-9.399699	-2.350882	 35.473990	 5.254307
